<svg xmlns="http://www.w3.org/2000/svg" viewBox="0 0 22 45" width="22" height="45">
  <!-- Legs / tracks -->
  <rect x="2" y="36" width="8" height="9" fill="#2b6cb0"/>
  <rect x="12" y="36" width="8" height="9" fill="#2b6cb0"/>
  <rect x="1" y="38" width="10" height="5" rx="2" fill="#3182ce"/>
  <rect x="11" y="38" width="10" height="5" rx="2" fill="#3182ce"/>
  <!-- Body -->
  <rect x="1" y="16" width="20" height="20" fill="#2b6cb0"/>
  <rect x="2" y="17" width="18" height="18" fill="#3182ce"/>
  <!-- Chest panel -->
  <rect x="5" y="20" width="12" height="10" fill="#2c5282"/>
  <rect x="6" y="21" width="4" height="4" fill="#63b3ed"/>
  <rect x="12" y="21" width="4" height="4" fill="#f6ad55"/>
  <rect x="6" y="26" width="10" height="2" fill="#63b3ed"/>
  <!-- Arms -->
  <rect x="-1" y="17" width="4" height="14" fill="#2b6cb0"/>
  <rect x="19" y="17" width="4" height="14" fill="#2b6cb0"/>
  <!-- Claws -->
  <rect x="-2" y="29" width="3" height="4" fill="#4299e1"/>
  <rect x="21" y="29" width="3" height="4" fill="#4299e1"/>
  <!-- Head (square) -->
  <rect x="2" y="2" width="18" height="14" fill="#2b6cb0"/>
  <rect x="3" y="3" width="16" height="12" fill="#4299e1"/>
  <!-- Antenna -->
  <rect x="10" y="0" width="2" height="3" fill="#718096"/>
  <rect x="9" y="0" width="4" height="2" fill="#e53e3e"/>
  <!-- Eyes (LED) -->
  <rect x="4" y="5" width="5" height="4" fill="#1a202c"/>
  <rect x="13" y="5" width="5" height="4" fill="#1a202c"/>
  <rect x="5" y="6" width="3" height="2" fill="#63b3ed"/>
  <rect x="14" y="6" width="3" height="2" fill="#63b3ed"/>
  <!-- Mouth (grid) -->
  <rect x="4" y="11" width="14" height="3" fill="#1a202c"/>
  <rect x="5" y="12" width="2" height="1" fill="#63b3ed"/>
  <rect x="8" y="12" width="2" height="1" fill="#63b3ed"/>
  <rect x="11" y="12" width="2" height="1" fill="#63b3ed"/>
  <rect x="14" y="12" width="2" height="1" fill="#63b3ed"/>
</svg>
